<svg version="1.1" xmlns="http://www.w3.org/2000/svg" xmlns:xlink="http://www.w3.org/1999/xlink" width="81.38674" height="104.20895" viewBox="0,0,81.38674,104.20895"><g transform="translate(-193.41859,-126.05252)"><g data-paper-data="{&quot;isPaintingLayer&quot;:true}" fill-rule="evenodd" stroke-miterlimit="10" stroke-dasharray="" stroke-dashoffset="0" style="mix-blend-mode: normal"><g><path d="M222.45,199.3c0.6,0.8 3.3,2 -0.2,4.2c-3.6,2.1 -12.7,5 -21.6,-2.9c-9.6,-8.6 -4.5,-20.3 -0.1,-20.7c4.3,-0.4 2.6,6.6 5.7,14.4c4.4,11.3 15.6,4.2 16.2,5z" fill="#ffab19" stroke="#001026" stroke-width="1.2" stroke-linecap="round" stroke-linejoin="round"/><path d="M203.35,185.1c0.5,4.4 1.5,7.4 1.5,7.4c0,0 -1.6,-2 -4,-1.6c-2.9,0.5 -3.8,2.9 -3.9,3.6c-0.7,-1.7 -1.3,-3.8 -1.1,-7.4c0.5,-3.5 2.7,-7.1 5.2,-6.7c2,0.4 1.9,2 2.3,4.7z" fill="#ffffff" stroke="none" stroke-width="1" stroke-linecap="butt" stroke-linejoin="miter"/></g><path d="M230.88455,205.93688c-0.21234,1.12023 -0.39542,5.1472 -3.29827,10.00657c-1.9786,3.37419 -11.13926,4.13726 -11.13926,4.13726c4.99788,7.77633 -1.76747,11.0198 -4.38188,8.98883c-2.07373,-1.6339 -6.59455,-10.89091 -5.00177,-12.60644c2.47816,-2.61892 7.484,-2.93765 11.13251,-4.80804c1.06786,-0.54743 1.0386,-3.45417 2.25292,-7.22318c0.86737,-2.69215 1.49314,-7.17081 6.41675,-6.77314c4.25282,0.40443 4.47806,5.00869 4.01901,8.27814z" fill="#ffab19" stroke="#001026" stroke-width="1.2" stroke-linecap="round" stroke-linejoin="round"/><path d="M243.53211,187.78573c1.45105,1.68061 6.19889,8.613 8.91957,8.39412c2.58233,-0.24818 7.35967,-5.74153 10.36676,-1.85213c2.95256,3.80558 -2.44165,7.43359 -7.78619,9.1206c-6.90386,2.22411 -15.4206,-5.00051 -15.66625,-12.71411c0.0033,-2.7459 2.66053,-4.71292 4.16611,-2.94848z" fill="#ffab19" stroke="#001026" stroke-width="1.2" stroke-linecap="round" stroke-linejoin="round"/><g><path d="M246.91212,205.08685c1.61076,2.94202 -0.57709,11.57355 -0.57709,11.57355c0,0 6.98728,1.99699 4.70691,7.18158c-1.67861,3.82521 -4.55514,2.14725 -13.72273,-2.28618c-1.39093,-0.69665 -1.89586,-2.21489 -1.38899,-3.5427c1.23529,-2.94008 2.7881,-7.77731 0.2907,-8.94905c-3.28808,-1.01417 -6.95572,-1.9021 -9.23221,-2.40961c-9.29576,-1.96694 -5.4643,-9.45893 -3.81359,-18.75491c0.85724,-5.02744 2.37461,-4.26746 8.4467,-5.02227c3.38405,-0.59853 5.37652,-0.94502 7.43253,-1.73419c3.09981,-1.13631 4.04526,3.60775 3.98021,6.26402c0,0 -0.1608,3.95274 -0.79477,6.1659c-0.76084,2.78229 -1.71146,5.62769 -2.56611,6.8604c0,0 5.56436,1.83791 7.23845,4.65348z" fill="#ffab19" stroke="#001026" stroke-width="1.2" stroke-linecap="round" stroke-linejoin="round"/><path d="M238.91086,200.58474c0,0 -1.80205,-0.6653 -3.79366,-1.58372c-2.46584,-1.07685 -4.83701,-1.86904 -3.91752,-5.44179c0.95062,-2.8454 1.55388,-6.41837 6.73911,-5.08668c4.93233,1.20502 3.91838,4.17687 3.91838,4.17687c-0.66746,4.96432 -2.94632,7.93531 -2.94632,7.93531z" fill="#ffffff" stroke="none" stroke-width="1" stroke-linecap="butt" stroke-linejoin="miter"/></g><path d="M228.75098,191.57322c-1.37836,1.98497 -5.82197,2.53667 -6.66467,3.27142c-0.20657,0.23944 0.90805,5.62809 1.5494,8.85434c0.96296,4.54782 -5.54445,6.9108 -8.24212,3.16346c-2.45824,-3.54077 -3.35506,-12.66742 -3.0058,-14.62139c0.7004,-4.49104 10.60795,-7.1237 17.16181,-8.99265" fill="#ffab19" stroke="#001026" stroke-width="1.2" stroke-linecap="round" stroke-linejoin="round"/><g><path d="M244.69145,129.41649c0.32081,-0.16457 0.80618,-0.00832 0.86002,0.40046l1.3656,10.92635c0,0 5.82364,5.39771 7.3358,8.89247c2.55339,5.8284 2.1407,10.31055 2.1407,10.31055c0,0 6.81494,2.89424 7.35856,8.69377c0.54362,5.79952 -5.05669,16.02872 -24.1556,17.5655c-19.09891,1.53678 -33.52053,-5.24827 -39.27725,-17.38211c-5.75672,-12.13384 6.91803,-24.37111 6.2309,-23.64457l-0.04958,-18.0227c-0.05384,-0.40878 0.47705,-0.64994 0.8517,-0.40572l11.1225,9.22551c0,0 4.66421,-1.17692 9.35644,-0.84082c2.80457,0.1199 5.16623,0.59169 7.40577,1.2508z" fill="#ffab19" stroke="#001026" stroke-width="1.2" stroke-linecap="butt" stroke-linejoin="miter"/><path d="M256.05001,160.30959c0,0 6.65037,2.57344 7.19399,8.37296c0.54362,5.79952 -5.3972,15.48645 -24.28603,16.94664c-24.61176,2.21389 -34.39854,-13.40112 -26.53592,-23.16991c7.874,-9.86814 18.26385,0.4813 26.67757,0.84101c7.21013,0.32251 8.72179,-5.84554 16.95039,-2.9907z" fill="#ffffff" stroke="none" stroke-width="1" stroke-linecap="butt" stroke-linejoin="miter"/><path d="M223.53708,167.35582c0.04551,-0.3974 0.47705,-0.64994 0.86308,-0.50507c1.80801,0.91165 6.99088,3.1157 12.9064,4.19582c5.33079,0.9125 8.54414,0.97856 10.06854,0.85119c0.50813,-0.04246 0.84864,0.49981 0.59305,0.97381c-1.20138,2.58006 -5.8301,9.59896 -16.19363,7.8081c-8.92711,-2.02896 -9.09303,-8.4898 -8.23743,-13.32384z" fill="#ffffff" stroke="#001026" stroke-width="1.2" stroke-linecap="round" stroke-linejoin="round"/><path d="M274.20534,163.49611c-5.10186,3.24052 -12.26648,2.52061 -12.26648,2.52061" fill="none" stroke="#001026" stroke-width="1.2" stroke-linecap="round" stroke-linejoin="round"/><path d="M271.63937,174.47545c-6.31598,-0.2201 -9.97445,-2.55153 -9.97445,-2.55153" fill="none" stroke="#001026" stroke-width="1.2" stroke-linecap="round" stroke-linejoin="round"/><path d="M238.99806,160.67166c2.08636,0.23895 4.24932,0.68798 4.26902,1.39482c-0.05995,1.40229 -1.86881,4.01342 -3.4698,3.93071c-1.81107,-0.00611 -5.69932,-2.96778 -5.51726,-4.55739c0.03719,-1.20358 2.73104,-0.99571 4.71805,-0.76814z" fill="#001026" stroke="#001026" stroke-width="1.2" stroke-linecap="round" stroke-linejoin="round"/><path d="M194.461,154.06101c0,0 8.22554,3.76038 11.35007,7.2385" fill="none" stroke="#001026" stroke-width="1.2" stroke-linecap="round" stroke-linejoin="round"/><path d="M205.71087,164.81091c-4.46551,1.19968 -11.69228,-0.7352 -11.69228,-0.7352" fill="none" stroke="#001026" stroke-width="1.2" stroke-linecap="round" stroke-linejoin="round"/><g><path d="M252.05272,150.39033c2.36913,4.80075 1.88817,9.87901 -1.09846,11.34872c-2.98663,1.46971 -7.3178,-1.14007 -9.78628,-5.9522c-2.36913,-4.80075 -1.88817,-9.87901 1.09846,-11.34872c2.99801,-1.56906 7.41715,1.15145 9.78628,5.9522z" fill="#ffffff" stroke="#001026" stroke-width="1.2" stroke-linecap="round" stroke-linejoin="round"/><path d="M251.00674,156.00779c-0.12517,1.09286 -1.02238,1.89598 -2.01588,1.78219c-0.99351,-0.11379 -1.6859,-1.09897 -1.56074,-2.19183c0.12517,-1.09286 1.02238,-1.89598 2.01588,-1.78219c0.99351,0.11379 1.6859,1.09897 1.56074,2.19183" fill="#001026" stroke="none" stroke-width="1" stroke-linecap="butt" stroke-linejoin="miter"/></g><g><path d="M227.09519,150.35024c2.47986,4.71278 1.66671,10.05495 -1.23195,11.63539c-3.49476,1.51216 -7.70688,-0.3794 -10.18674,-5.09219c-2.57921,-4.72416 -2.12932,-10.4099 1.20087,-12.24287c3.34158,-1.93232 7.73796,0.98688 10.21782,5.69967z" fill="#ffffff" stroke="#001026" stroke-width="1.2" stroke-linecap="round" stroke-linejoin="round"/><path d="M225.83912,156.0443c-0.12517,1.09286 -1.02238,1.89598 -2.01588,1.78219c-0.99351,-0.11379 -1.6859,-1.09897 -1.56074,-2.19183c0.12517,-1.09286 1.02238,-1.89598 2.01588,-1.78219c0.98213,0.21314 1.6859,1.09897 1.56074,2.19183" fill="#001026" stroke="none" stroke-width="1" stroke-linecap="butt" stroke-linejoin="miter"/></g></g></g></g></svg>