<svg version="1.1" xmlns="http://www.w3.org/2000/svg" xmlns:xlink="http://www.w3.org/1999/xlink" width="84.89622" height="103.82529" viewBox="0,0,84.89622,103.82529"><g transform="translate(-194.59219,-128.6838)"><g data-paper-data="{&quot;isPaintingLayer&quot;:true}" fill-rule="evenodd" stroke-miterlimit="10" stroke-dasharray="" stroke-dashoffset="0" style="mix-blend-mode: normal"><g><path d="M222.45,199.3c0.6,0.8 3.3,2 -0.2,4.2c-3.6,2.1 -12.7,5 -21.6,-2.9c-9.6,-8.6 -4.5,-20.3 -0.1,-20.7c4.3,-0.4 2.6,6.6 5.7,14.4c4.4,11.3 15.6,4.2 16.2,5z" fill="#ffab19" stroke="#001026" stroke-width="1.2" stroke-linecap="round" stroke-linejoin="round"/><path d="M203.35,185.1c0.5,4.4 1.5,7.4 1.5,7.4c0,0 -1.6,-2 -4,-1.6c-2.9,0.5 -3.8,2.9 -3.9,3.6c-0.7,-1.7 -1.3,-3.8 -1.1,-7.4c0.5,-3.5 2.7,-7.1 5.2,-6.7c2,0.4 1.9,2 2.3,4.7z" fill="#ffffff" stroke="none" stroke-width="1" stroke-linecap="butt" stroke-linejoin="miter"/></g><path d="M227.15,209.7c-0.7,0.9 -2.7,4.4 -7.5,7.4c-3.3,2.1 -11.8,-1.4 -11.8,-1.4c0.9,9.2 -6.6,9 -8,6c-1.1,-2.4 -0.9,-12.7 1.3,-13.5c3.4,-1.2 8,0.8 12.1,0.8c1.2,0 2.5,-2.6 5.3,-5.4c2,-2 4.6,-5.7 8.8,-3.1c3.6,2.3 1.7,6.5 -0.2,9.2z" fill="#ffab19" stroke="#001026" stroke-width="1.2" stroke-linecap="round" stroke-linejoin="round"/><path d="M244.35,188.5c0.3,2.2 0.5,10.6 2.9,11.9c2.3,1.2 9.3,-0.8 9.7,4.1c0.4,4.8 -6.1,4.9 -11.5,3.4c-7,-1.9 -10.2,-12.6 -6.2,-19.2c1.5,-2.3 4.8,-2.5 5.1,-0.2z" fill="#ffab19" stroke="#001026" stroke-width="1.2" stroke-linecap="round" stroke-linejoin="round"/><g><path d="M241.85,211.5c0.6,3.3 -4.2,10.8 -4.2,10.8c0,0 6,4.1 2.2,8.3c-2.8,3.1 -5,0.6 -12.3,-6.5c-1.1,-1.1 -1.1,-2.7 -0.2,-3.8c2.1,-2.4 5.1,-6.5 3.1,-8.4c-2.8,-2 -6,-4 -8,-5.2c-8.2,-4.8 -2.2,-10.7 2.3,-19c2.4,-4.5 3.6,-3.3 9.6,-2.1c3.4,0.5 5.4,0.8 7.6,0.7c3.3,-0.1 2.7,4.7 1.8,7.2c0,0 -1.4,3.7 -2.7,5.6c-1.6,2.4 -3.4,4.8 -4.6,5.7c0,0 4.7,3.5 5.4,6.7z" fill="#ffab19" stroke="#001026" stroke-width="1.2" stroke-linecap="round" stroke-linejoin="round"/><path d="M235.6784,204.7029c0,0 -1.5,-1.2 -3.1,-2.7c-2,-1.8 -4,-3.3 -2,-6.4c1.8,-2.4 3.5,-5.6 8,-2.7c4.3,2.7 2.4,5.2 2.4,5.2c-2.2,4.5 -5.3,6.6 -5.3,6.6z" fill="#ffffff" stroke="none" stroke-width="1" stroke-linecap="butt" stroke-linejoin="miter"/></g><path d="M226.55,191.7c-2.2,1 -6.3,-0.8 -7.4,-0.6c-0.3,0.1 -2.1,5.3 -3.2,8.4c-1.5,4.4 -8.3,3.1 -8.7,-1.5c-0.3,-4.3 3.6,-12.6 4.9,-14.1c2.9,-3.5 12.7592,-0.6917 19.3463,1.0565" fill="#ffab19" stroke="#001026" stroke-width="1.2" stroke-linecap="round" stroke-linejoin="round"/><g><path d="M250.71716,133.50575c0.32694,-0.15201 0.8059,0.02292 0.84386,0.43348l0.94122,10.97106c0,0 5.61012,5.6193 6.98574,9.17003c2.32564,5.92295 1.7396,10.38575 1.7396,10.38575c0,0 6.69768,3.15613 7.01618,8.97236c0.3185,5.81623 -5.67395,15.82075 -24.81806,16.61637c-19.14411,0.79562 -33.292,-6.54313 -38.57426,-18.89091c-5.28226,-12.34778 7.85713,-24.08476 7.14236,-23.38539l0.64877,-18.01108c-0.03796,-0.41056 0.50188,-0.63097 0.86678,-0.37242l10.75669,9.64954c0,0 4.70631,-0.99531 9.382,-0.47766c2.79782,0.22848 5.13942,0.79142 7.35175,1.53681z" fill="#ffab19" stroke="#001026" stroke-width="1.2" stroke-linecap="butt" stroke-linejoin="miter"/><path d="M260.87019,164.81575c0,0 6.54567,2.82918 6.86417,8.64541c0.3185,5.81623 -5.99319,15.2657 -24.92442,15.99292c-24.67906,1.25861 -33.85347,-14.72388 -25.61824,-24.18069c8.25044,-9.55564 18.23149,1.1886 26.62495,1.87404c7.19222,0.60163 8.94173,-5.50322 17.05354,-2.33169z" fill="#ffffff" stroke="none" stroke-width="1" stroke-linecap="butt" stroke-linejoin="miter"/><path d="M228.10865,170.59693c0.06088,-0.39534 0.50188,-0.63097 0.882,-0.47125c1.77133,0.98102 6.86491,3.38424 12.73413,4.69275c5.29143,1.11836 8.49981,1.30888 10.028,1.24067c0.50939,-0.02274 0.82864,0.53232 0.55487,0.99605c-1.30044,2.53157 -6.19764,9.36585 -16.48401,7.17479c-8.84179,-2.37333 -8.75725,-8.83575 -7.71499,-13.63301z" fill="#ffffff" stroke="#001026" stroke-width="1.2" stroke-linecap="round" stroke-linejoin="round"/><path d="M278.88842,168.70334c-5.22359,3.04041 -12.35493,2.04344 -12.35493,2.04344" fill="none" stroke="#001026" stroke-width="1.2" stroke-linecap="round" stroke-linejoin="round"/><path d="M275.89897,179.575c-6.30271,-0.46466 -9.8681,-2.93609 -9.8681,-2.93609" fill="none" stroke="#001026" stroke-width="1.2" stroke-linecap="round" stroke-linejoin="round"/><path d="M243.81701,164.51684c2.07554,0.31961 4.21947,0.85211 4.21177,1.55918c-0.11424,1.39891 -2.02291,3.938 -3.61949,3.79332c-1.80947,-0.07628 -5.58005,-3.18638 -5.33654,-4.76774c0.0838,-1.20124 2.76757,-0.88915 4.74427,-0.58475z" fill="#001026" stroke="#001026" stroke-width="1.2" stroke-linecap="round" stroke-linejoin="round"/><path d="M199.56954,156.18551c0,0 8.07366,4.07626 11.06108,7.67284" fill="none" stroke="#001026" stroke-width="1.2" stroke-linecap="round" stroke-linejoin="round"/><path d="M210.39445,167.36323c-4.50864,1.02575 -11.65502,-1.18768 -11.65502,-1.18768" fill="none" stroke="#001026" stroke-width="1.2" stroke-linecap="round" stroke-linejoin="round"/><g><path d="M257.26024,154.74905c2.18133,4.88894 1.50397,9.94475 -1.53736,11.29763c-3.04133,1.35288 -7.26813,-1.42275 -9.5483,-6.32692c-2.18133,-4.88894 -1.50397,-9.94475 1.53736,-11.29763c3.05655,-1.45172 7.36697,1.43797 9.5483,6.32692z" fill="#ffffff" stroke="#001026" stroke-width="1.2" stroke-linecap="round" stroke-linejoin="round"/><path d="M255.99738,160.32177c-0.16742,1.08719 -1.09507,1.85494 -2.08342,1.70275c-0.98835,-0.1522 -1.64205,-1.16347 -1.47464,-2.25065c0.16742,-1.08719 1.09507,-1.85494 2.08342,-1.70275c0.98835,0.1522 1.64205,1.16347 1.47464,2.25065" fill="#001026" stroke="none" stroke-width="1" stroke-linecap="butt" stroke-linejoin="miter"/></g><g><path d="M232.323,153.74198c2.29539,4.80533 1.27586,10.11198 -1.68186,11.57892c-3.55073,1.37562 -7.6864,-0.67773 -9.98179,-5.48306c-2.39422,-4.82055 -1.72438,-10.48458 1.67434,-12.18715c3.41394,-1.8014 7.69391,1.28596 9.9893,6.09129z" fill="#ffffff" stroke="#001026" stroke-width="1.2" stroke-linecap="round" stroke-linejoin="round"/><path d="M230.84726,159.38309c-0.16742,1.08719 -1.09507,1.85494 -2.08342,1.70275c-0.98835,-0.1522 -1.64205,-1.16347 -1.47464,-2.25065c0.16742,-1.08719 1.09507,-1.85494 2.08342,-1.70275c0.97313,0.25103 1.64205,1.16347 1.47464,2.25065" fill="#001026" stroke="none" stroke-width="1" stroke-linecap="butt" stroke-linejoin="miter"/></g></g></g></g></svg>