<svg version="1.1" xmlns="http://www.w3.org/2000/svg" xmlns:xlink="http://www.w3.org/1999/xlink" width="83.73853" height="110.25553" viewBox="0,0,83.73853,110.25553"><g transform="translate(-194.59219,-125.52295)"><g data-paper-data="{&quot;isPaintingLayer&quot;:true}" fill-rule="evenodd" stroke-miterlimit="10" stroke-dasharray="" stroke-dashoffset="0" style="mix-blend-mode: normal"><g><path d="M222.45,199.3c0.6,0.8 3.3,2 -0.2,4.2c-3.6,2.1 -12.7,5 -21.6,-2.9c-9.6,-8.6 -4.5,-20.3 -0.1,-20.7c4.3,-0.4 2.6,6.6 5.7,14.4c4.4,11.3 15.6,4.2 16.2,5z" fill="#ffab19" stroke="#001026" stroke-width="1.2" stroke-linecap="round" stroke-linejoin="round"/><path d="M203.35,185.1c0.5,4.4 1.5,7.4 1.5,7.4c0,0 -1.6,-2 -4,-1.6c-2.9,0.5 -3.8,2.9 -3.9,3.6c-0.7,-1.7 -1.3,-3.8 -1.1,-7.4c0.5,-3.5 2.7,-7.1 5.2,-6.7c2,0.4 1.9,2 2.3,4.7z" fill="#ffffff" stroke="none" stroke-width="1" stroke-linecap="butt" stroke-linejoin="miter"/></g><path d="M235.29673,210.05515c-0.11398,1.13446 0.05432,5.16208 -2.41432,10.25578c-1.67724,3.53367 -10.73665,5.0916 -10.73665,5.0916c5.65609,7.31154 -0.80111,11.13185 -3.58245,9.33628c-2.20813,-1.44711 -7.51792,-10.27526 -6.08059,-12.12297c2.24068,-2.82478 7.19975,-3.57823 10.67152,-5.75924c1.01613,-0.63834 0.73386,-3.53149 1.61534,-7.39194c0.62963,-2.75745 0.863,-7.27359 5.80254,-7.30621c4.27188,0.03253 4.89722,4.59969 4.72465,7.8967z" fill="#ffab19" stroke="#001026" stroke-width="1.2" stroke-linecap="round" stroke-linejoin="round"/><path d="M248.25627,188.11705c-0.59187,2.14002 -3.72056,9.93818 -2.0277,12.07926c1.6404,2.00975 8.86183,2.93222 7.29713,7.59288c-1.52526,4.56876 -7.53796,2.09742 -11.90884,-1.41048c-5.68349,-4.50643 -4.4047,-15.60124 1.87382,-20.08902c2.28543,-1.5221 5.39688,-0.40456 4.76558,1.82736z" fill="#ffab19" stroke="#001026" stroke-width="1.2" stroke-linecap="round" stroke-linejoin="round"/><g><path d="M248.65385,209.31751c1.0728,3.17791 -2.58733,11.29538 -2.58733,11.29538c0,0 6.53174,3.18535 3.38185,7.89261c-2.3202,3.4737 -4.85989,1.31964 -13.11344,-4.64515c-1.24807,-0.92862 -1.48038,-2.51167 -0.74964,-3.73069c1.72926,-2.67949 4.10215,-7.17164 1.84747,-8.76109c-3.06073,-1.57224 -6.51722,-3.08641 -8.67026,-3.98329c-8.81006,-3.55849 -3.73033,-10.26716 -0.48318,-19.13261c1.72117,-4.80079 3.08268,-3.78775 9.19334,-3.47166c3.43658,0.00102 5.45893,0.00744 7.62109,-0.41094c3.25051,-0.5781 3.35382,4.25815 2.82637,6.86233c0,0 -0.84791,3.86407 -1.85827,5.93269c-1.23456,2.60689 -2.66701,5.24281 -3.7236,6.30752c0,0 5.1584,2.78047 6.31561,5.84492z" fill="#ffab19" stroke="#001026" stroke-width="1.2" stroke-linecap="round" stroke-linejoin="round"/><path d="M241.56072,203.48856c0,0 -1.65835,-0.96948 -3.45919,-2.22126c-2.24016,-1.49052 -4.43677,-2.68424 -2.90809,-6.04178c1.43244,-2.63592 2.64979,-6.04886 7.52317,-3.83298c4.64647,2.04702 3.1296,4.79641 3.1296,4.79641c-1.52328,4.77175 -4.28551,7.29961 -4.28551,7.29961z" fill="#ffffff" stroke="none" stroke-width="1" stroke-linecap="butt" stroke-linejoin="miter"/></g><path d="M230.93167,192.96206c-1.51902,1.87951 -5.99098,2.10669 -6.88487,2.77823c-0.22343,0.22379 0.49647,5.67922 0.90158,8.94355c0.62978,4.6058 -6.0322,6.48942 -8.4503,2.55587c-2.19431,-3.71012 -2.42525,-12.87782 -1.93485,-14.80123c1.02505,-4.42824 11.09778,-6.33364 17.77017,-7.72117" fill="#ffab19" stroke="#001026" stroke-width="1.2" stroke-linecap="round" stroke-linejoin="round"/><g><path d="M238.69608,125.95234c0.25803,-0.25183 0.7679,-0.24563 0.93986,0.1291l4.52626,10.03807c0,0 7.15616,3.44083 9.63146,6.33443c4.15825,4.81653 5.08536,9.22112 5.08536,9.22112c0,0 7.36532,0.75638 9.59462,6.13785c2.22931,5.38147 -0.10626,16.8071 -17.90316,23.90642c-17.7969,7.09932 -33.5779,4.86771 -42.65611,-5.02957c-9.07821,-9.89728 -0.57468,-25.32745 -1.01707,-24.43063l-5.36093,-17.20699c-0.17196,-0.37474 0.26423,-0.7617 0.69422,-0.63879l13.34803,5.53625c0,0 4.10991,-2.49973 8.69266,-3.56197c2.71526,-0.71229 5.11104,-0.95774 7.44536,-0.98821z" fill="#ffab19" stroke="#001026" stroke-width="1.2" stroke-linecap="butt" stroke-linejoin="miter"/><path d="M258.65783,152.12349c0,0 7.11348,0.49835 9.34279,5.87982c2.22931,5.38147 -0.5915,16.38933 -18.21025,23.35352c-22.86508,9.37166 -36.82056,-2.6639 -32.18751,-14.31658c4.61463,-11.75096 17.59395,-4.92473 25.73973,-7.0616c6.98473,-1.81755 6.6107,-8.15712 15.31523,-7.85517z" fill="#ffffff" stroke="none" stroke-width="1" stroke-linecap="butt" stroke-linejoin="miter"/><path d="M229.66747,168.44216c-0.07367,-0.39316 0.26423,-0.7617 0.6758,-0.73708c1.99642,0.33808 7.59873,0.91613 13.56976,0.20419c5.36287,-0.69971 8.45287,-1.58396 9.87196,-2.1551c0.47303,-0.19038 0.95828,0.22739 0.85379,0.75568c-0.38731,2.81957 -2.74094,10.89115 -13.17182,12.23533c-9.1285,0.69316 -11.19187,-5.43159 -11.79949,-10.30301z" fill="#ffffff" stroke="#001026" stroke-width="1.2" stroke-linecap="round" stroke-linejoin="round"/><path d="M276.94565,149.81572c-3.9197,4.60064 -10.97811,6.02504 -10.97811,6.02504" fill="none" stroke="#001026" stroke-width="1.2" stroke-linecap="round" stroke-linejoin="round"/><path d="M277.73072,161.06355c-6.10013,1.65179 -10.28335,0.5026 -10.28335,0.5026" fill="none" stroke="#001026" stroke-width="1.2" stroke-linecap="round" stroke-linejoin="round"/><path d="M242.47057,157.49681c2.06407,-0.38678 4.26327,-0.5954 4.49049,0.0742c0.35614,1.35763 -0.60249,4.386 -2.1567,4.77898c-1.73237,0.52811 -6.32097,-1.15556 -6.61566,-2.72819c-0.31931,-1.16105 2.31608,-1.75663 4.28187,-2.125z" fill="#001026" stroke="#001026" stroke-width="1.2" stroke-linecap="round" stroke-linejoin="round"/><path d="M197.96415,164.31065c0,0 8.96858,1.16814 12.97967,3.57047" fill="none" stroke="#001026" stroke-width="1.2" stroke-linecap="round" stroke-linejoin="round"/><path d="M211.88332,171.26598c-3.91333,2.4629 -11.38933,2.74466 -11.38933,2.74466" fill="none" stroke="#001026" stroke-width="1.2" stroke-linecap="round" stroke-linejoin="round"/><g><path d="M251.91377,143.82363c3.67921,3.88889 4.71682,8.88322 2.29625,11.16813c-2.42057,2.28491 -7.32866,1.06808 -11.10615,-2.80239c-3.67921,-3.88889 -4.71682,-8.88322 -2.29625,-11.16813c2.40215,-2.3832 7.42695,-1.0865 11.10615,2.80239z" fill="#ffffff" stroke="#001026" stroke-width="1.2" stroke-linecap="round" stroke-linejoin="round"/><path d="M252.57045,149.49978c0.2026,1.08118 -0.41795,2.11313 -1.40084,2.29731c-0.98289,0.18418 -1.93497,-0.55308 -2.13757,-1.63426c-0.2026,-1.08118 0.41795,-2.11313 1.40084,-2.29731c0.98289,-0.18418 1.93497,0.55308 2.13757,1.63426" fill="#001026" stroke="none" stroke-width="1" stroke-linecap="butt" stroke-linejoin="miter"/></g><g><path d="M228.05375,151.14343c3.75908,3.77218 4.55708,9.11663 2.25322,11.48142c-2.8936,2.47529 -7.47618,1.90965 -11.23526,-1.86254c-3.85737,-3.75376 -5.10378,-9.31941 -2.46201,-12.05274c2.62335,-2.83162 7.68498,-1.33833 11.44405,2.43385z" fill="#ffffff" stroke="#001026" stroke-width="1.2" stroke-linecap="round" stroke-linejoin="round"/><path d="M228.53227,156.95471c0.2026,1.08118 -0.41795,2.11313 -1.40084,2.29731c-0.98289,0.18418 -1.93497,-0.55308 -2.13757,-1.63426c-0.2026,-1.08118 0.41795,-2.11313 1.40084,-2.29731c1.00131,-0.08589 1.93497,0.55308 2.13757,1.63426" fill="#001026" stroke="none" stroke-width="1" stroke-linecap="butt" stroke-linejoin="miter"/></g></g></g></g></svg>