<svg version="1.1" xmlns="http://www.w3.org/2000/svg" xmlns:xlink="http://www.w3.org/1999/xlink" width="85.16899" height="103.02509" viewBox="0,0,85.16899,103.02509"><g transform="translate(-194.59219,-129.48399)"><g data-paper-data="{&quot;isPaintingLayer&quot;:true}" fill-rule="evenodd" stroke-miterlimit="10" stroke-dasharray="" stroke-dashoffset="0" style="mix-blend-mode: normal"><g><path d="M222.45,199.3c0.6,0.8 3.3,2 -0.2,4.2c-3.6,2.1 -12.7,5 -21.6,-2.9c-9.6,-8.6 -4.5,-20.3 -0.1,-20.7c4.3,-0.4 2.6,6.6 5.7,14.4c4.4,11.3 15.6,4.2 16.2,5z" fill="#ffab19" stroke="#001026" stroke-width="1.2" stroke-linecap="round" stroke-linejoin="round"/><path d="M203.35,185.1c0.5,4.4 1.5,7.4 1.5,7.4c0,0 -1.6,-2 -4,-1.6c-2.9,0.5 -3.8,2.9 -3.9,3.6c-0.7,-1.7 -1.3,-3.8 -1.1,-7.4c0.5,-3.5 2.7,-7.1 5.2,-6.7c2,0.4 1.9,2 2.3,4.7z" fill="#ffffff" stroke="none" stroke-width="1" stroke-linecap="butt" stroke-linejoin="miter"/></g><path d="M226.77493,205.93688c-0.21234,1.12023 -0.39542,5.1472 -3.29827,10.00657c-1.9786,3.37419 -11.13926,4.13726 -11.13926,4.13726c4.99788,7.77633 -1.76747,11.0198 -4.38188,8.98883c-2.07373,-1.6339 -6.59455,-10.89091 -5.00177,-12.60644c2.47816,-2.61892 7.484,-2.93765 11.13251,-4.80804c1.06786,-0.54743 1.0386,-3.45417 2.25292,-7.22318c0.86737,-2.69215 1.49314,-7.17081 6.41675,-6.77314c4.25282,0.40443 4.47806,5.00869 4.01901,8.27814z" fill="#ffab19" stroke="#001026" stroke-width="1.2" stroke-linecap="round" stroke-linejoin="round"/><path d="M242.17208,189.48099c0.82594,2.06102 3.06247,10.16028 5.70654,10.83768c2.52276,0.60472 8.82635,-3.03736 10.40582,1.61831c1.55515,4.55867 -4.72545,6.2362 -10.32811,6.09427c-7.25191,-0.14087 -12.95765,-9.74162 -10.68255,-17.11617c0.89572,-2.59571 4.04804,-3.59212 4.8983,-1.4341z" fill="#ffab19" stroke="#001026" stroke-width="1.2" stroke-linecap="round" stroke-linejoin="round"/><g><path d="M241.85,211.5c0.6,3.3 -4.2,10.8 -4.2,10.8c0,0 6,4.1 2.2,8.3c-2.8,3.1 -5,0.6 -12.3,-6.5c-1.1,-1.1 -1.1,-2.7 -0.2,-3.8c2.1,-2.4 5.1,-6.5 3.1,-8.4c-2.8,-2 -6,-4 -8,-5.2c-8.2,-4.8 -2.2,-10.7 2.3,-19c2.4,-4.5 3.6,-3.3 9.6,-2.1c3.4,0.5 5.4,0.8 7.6,0.7c3.3,-0.1 2.7,4.7 1.8,7.2c0,0 -1.4,3.7 -2.7,5.6c-1.6,2.4 -3.4,4.8 -4.6,5.7c0,0 4.7,3.5 5.4,6.7z" fill="#ffab19" stroke="#001026" stroke-width="1.2" stroke-linecap="round" stroke-linejoin="round"/><path d="M235.6784,204.7029c0,0 -1.5,-1.2 -3.1,-2.7c-2,-1.8 -4,-3.3 -2,-6.4c1.8,-2.4 3.5,-5.6 8,-2.7c4.3,2.7 2.4,5.2 2.4,5.2c-2.2,4.5 -5.3,6.6 -5.3,6.6z" fill="#ffffff" stroke="none" stroke-width="1" stroke-linecap="butt" stroke-linejoin="miter"/></g><path d="M226.55,191.7c-2.2,1 -6.3,-0.8 -7.4,-0.6c-0.3,0.1 -2.1,5.3 -3.2,8.4c-1.5,4.4 -8.3,3.1 -8.7,-1.5c-0.3,-4.3 3.6,-12.6 4.9,-14.1c2.9,-3.5 12.7592,-0.6917 19.3463,1.0565" fill="#ffab19" stroke="#001026" stroke-width="1.2" stroke-linecap="round" stroke-linejoin="round"/><g><path d="M251.18959,134.51846c0.3278,-0.15016 0.80576,0.02748 0.84139,0.43825l0.87911,10.97621c0,0 5.57823,5.65096 6.93373,9.20942c2.29208,5.93602 1.68079,10.39543 1.68079,10.39543c0,0 6.67971,3.19398 6.96529,9.01192c0.28558,5.81794 -5.7634,15.78839 -24.91171,16.47564c-19.14831,0.68725 -33.25444,-6.73145 -38.46672,-19.10893c-5.21229,-12.37748 7.99332,-24.0399 7.27461,-23.34459l0.7507,-18.00712c-0.03563,-0.41077 0.50544,-0.62812 0.86887,-0.36751l10.70191,9.71026c0,0 4.71187,-0.96866 9.38455,-0.42456c2.79648,0.24431 5.13486,0.82049 7.34293,1.57839z" fill="#ffab19" stroke="#001026" stroke-width="1.2" stroke-linecap="butt" stroke-linejoin="miter"/><path d="M261.16525,165.88542c0,0 6.52955,2.86618 6.81513,8.68412c0.28558,5.81794 -6.0795,15.23154 -25.01453,15.8516c-24.68579,1.11892 -33.76959,-14.91525 -25.48098,-24.32529c8.30439,-9.50879 18.22447,1.29177 26.61392,2.0247c7.1887,0.64233 8.97274,-5.45252 17.06646,-2.23513z" fill="#ffffff" stroke="none" stroke-width="1" stroke-linecap="butt" stroke-linejoin="miter"/><path d="M228.37152,171.48109c0.06311,-0.39499 0.50544,-0.62812 0.88465,-0.46625c1.76575,0.99103 6.84564,3.42303 12.70737,4.76475c5.28502,1.14829 8.49227,1.35697 10.02081,1.29741c0.50952,-0.01985 0.82561,0.537 0.54922,0.99918c-1.31475,2.52417 -6.25055,9.33063 -16.52435,7.08138c-8.82822,-2.42334 -8.70711,-8.88517 -7.63771,-13.67646z" fill="#ffffff" stroke="#001026" stroke-width="1.2" stroke-linecap="round" stroke-linejoin="round"/><path d="M279.16119,169.87493c-5.24072,3.0108 -12.3663,1.97348 -12.3663,1.97348" fill="none" stroke="#001026" stroke-width="1.2" stroke-linecap="round" stroke-linejoin="round"/><path d="M276.11026,180.7295c-6.29997,-0.50032 -9.85132,-2.99189 -9.85132,-2.99189" fill="none" stroke="#001026" stroke-width="1.2" stroke-linecap="round" stroke-linejoin="round"/><path d="M244.11404,165.49001c2.07369,0.33135 4.21458,0.87598 4.20287,1.58299c-0.12215,1.39824 -2.04517,3.92649 -3.6409,3.77277c-1.80901,-0.08652 -5.56193,-3.21791 -5.30947,-4.79787c0.0906,-1.20075 2.77255,-0.87347 4.7475,-0.55789z" fill="#001026" stroke="#001026" stroke-width="1.2" stroke-linecap="round" stroke-linejoin="round"/><path d="M199.91443,156.90837c0,0 8.05046,4.12189 11.01748,7.73532" fill="none" stroke="#001026" stroke-width="1.2" stroke-linecap="round" stroke-linejoin="round"/><path d="M210.6759,168.14718c-4.51437,1.00022 -11.64811,-1.25363 -11.64811,-1.25363" fill="none" stroke="#001026" stroke-width="1.2" stroke-linecap="round" stroke-linejoin="round"/><g><path d="M257.61234,155.79846c2.15363,4.90121 1.44766,9.9531 -1.60128,11.28875c-3.04894,1.33565 -7.25997,-1.46387 -9.51234,-6.38086c-2.15363,-4.90121 -1.44766,-9.9531 1.60128,-11.28875c3.06472,-1.43439 7.35871,1.47965 9.51234,6.38086z" fill="#ffffff" stroke="#001026" stroke-width="1.2" stroke-linecap="round" stroke-linejoin="round"/><path d="M256.31796,161.36394c-0.17357,1.08622 -1.10555,1.84872 -2.09303,1.69093c-0.98747,-0.15779 -1.63544,-1.17274 -1.46188,-2.25896c0.17357,-1.08622 1.10555,-1.84872 2.09303,-1.69093c0.98747,0.15779 1.63544,1.17274 1.46188,2.25896" fill="#001026" stroke="none" stroke-width="1" stroke-linecap="butt" stroke-linejoin="miter"/></g><g><path d="M232.6812,154.65026c2.26816,4.81824 1.21861,10.11904 -1.74736,11.56921c-3.55846,1.3555 -7.68244,-0.72122 -9.95059,-5.53947c-2.3669,-4.83402 -1.66501,-10.49418 1.74329,-12.17748c3.42408,-1.78205 7.68651,1.32949 9.95467,6.14773z" fill="#ffffff" stroke="#001026" stroke-width="1.2" stroke-linecap="round" stroke-linejoin="round"/><path d="M231.17355,160.28293c-0.17357,1.08622 -1.10555,1.84872 -2.09303,1.69093c-0.98747,-0.15779 -1.63544,-1.17274 -1.46188,-2.25896c0.17357,-1.08622 1.10555,-1.84872 2.09303,-1.69093c0.97169,0.25653 1.63544,1.17274 1.46188,2.25896" fill="#001026" stroke="none" stroke-width="1" stroke-linecap="butt" stroke-linejoin="miter"/></g></g></g></g></svg>