<svg version="1.1" xmlns="http://www.w3.org/2000/svg" xmlns:xlink="http://www.w3.org/1999/xlink" width="94.73788" height="102.60663" viewBox="0,0,94.73788,102.60663"><g transform="translate(-189.21807,-126.24264)"><g data-paper-data="{&quot;isPaintingLayer&quot;:true}" fill-rule="evenodd" stroke-miterlimit="10" stroke-dasharray="" stroke-dashoffset="0" style="mix-blend-mode: normal"><g><path d="M217.07588,195.19038c0.6,0.8 3.3,2 -0.2,4.2c-3.6,2.1 -12.7,5 -21.6,-2.9c-9.6,-8.6 -4.5,-20.3 -0.1,-20.7c4.3,-0.4 2.6,6.6 5.7,14.4c4.4,11.3 15.6,4.2 16.2,5z" fill="#ffab19" stroke="#001026" stroke-width="1.2" stroke-linecap="round" stroke-linejoin="round"/><path d="M197.97588,180.99038c0.5,4.4 1.5,7.4 1.5,7.4c0,0 -1.6,-2 -4,-1.6c-2.9,0.5 -3.8,2.9 -3.9,3.6c-0.7,-1.7 -1.3,-3.8 -1.1,-7.4c0.5,-3.5 2.7,-7.1 5.2,-6.7c2,0.4 1.9,2 2.3,4.7z" fill="#ffffff" stroke="none" stroke-width="1" stroke-linecap="butt" stroke-linejoin="miter"/></g><path d="M220.94721,209.31234c-0.86819,0.73907 -3.53737,3.75993 -8.84662,5.72253c-3.65772,1.386 -11.26973,-3.76738 -11.26973,-3.76738c-0.98726,9.19105 -8.29034,7.47196 -9.05186,4.25016c-0.58962,-2.57339 1.69812,-12.6181 4.01474,-12.95461c3.57286,-0.48446 7.6708,2.40811 11.68534,3.24083c1.17499,0.24372 2.97596,-2.03805 6.28628,-4.21104c2.36451,-1.55212 5.66178,-4.64695 9.24621,-1.24812c3.05785,2.98322 0.34443,6.70979 -2.06433,8.96765z" fill="#ffab19" stroke="#001026" stroke-width="1.2" stroke-linecap="round" stroke-linejoin="round"/><path d="M244.35,188.5c0.3,2.2 0.5,10.6 2.9,11.9c2.3,1.2 9.3,-0.8 9.7,4.1c0.4,4.8 -6.1,4.9 -11.5,3.4c-7,-1.9 -10.2,-12.6 -6.2,-19.2c1.5,-2.3 4.8,-2.5 5.1,-0.2z" fill="#ffab19" stroke="#001026" stroke-width="1.2" stroke-linecap="round" stroke-linejoin="round"/><g><path d="M236.65034,209.31816c-0.17035,3.34977 -6.5579,9.55374 -6.5579,9.55374c0,0 4.90374,5.36316 0.24416,8.58316c-3.43457,2.37775 -5.00475,-0.55901 -10.48817,-9.13991c-0.81939,-1.32235 -0.45358,-2.87998 0.67407,-3.74508c2.59308,-1.85633 6.45098,-5.16187 4.93833,-7.46878c-2.2686,-2.58717 -4.9266,-5.2658 -6.59928,-6.89127c-6.88543,-6.54758 0.30453,-10.91958 6.58293,-17.97096c3.36525,-3.83212 4.2591,-2.38956 9.82585,0.15041c3.19565,1.26408 5.07408,2.01338 7.23867,2.419c3.23546,0.65711 1.55395,5.1928 0.10624,7.42083c0,0 -2.20882,3.28194 -3.90879,4.8344c-2.10632,1.97064 -4.40735,3.89555 -5.78132,4.49738c0,0 3.77534,4.48184 3.7252,7.75712z" fill="#ffab19" stroke="#001026" stroke-width="1.2" stroke-linecap="round" stroke-linejoin="round"/><path d="M232.19618,201.29011c0,0 -1.18593,-1.51115 -2.40062,-3.33722c-1.5355,-2.20957 -3.1396,-4.12711 -0.48384,-6.68775c2.30102,-1.92491 4.6876,-4.65151 8.40539,-0.7995c3.56883,3.61157 1.14759,5.61097 1.14759,5.61097c-3.17053,3.87785 -6.66854,5.21349 -6.66854,5.21349z" fill="#ffffff" stroke="none" stroke-width="1" stroke-linecap="butt" stroke-linejoin="miter"/></g><path d="M226.55,191.7c-2.2,1 -6.3,-0.8 -7.4,-0.6c-0.3,0.1 -2.1,5.3 -3.2,8.4c-1.5,4.4 -8.3,3.1 -8.7,-1.5c-0.3,-4.3 3.6,-12.6 4.9,-14.1c2.9,-3.5 12.7592,-0.6917 19.3463,1.0565" fill="#ffab19" stroke="#001026" stroke-width="1.2" stroke-linecap="round" stroke-linejoin="round"/><g><path d="M256.37685,132.31791c0.33184,-0.141 0.80468,0.04984 0.8289,0.46144l0.574,10.99639c0,0 5.41917,5.80367 6.67535,9.39839c2.12638,5.99737 1.3915,10.43809 1.3915,10.43809c0,0 6.58845,3.37822 6.71238,9.20185c0.12393,5.82363 -6.19956,15.62227 -25.35957,15.77759c-19.16001,0.15531 -33.05471,-7.6522 -37.92131,-20.16963c-4.8666,-12.51744 8.65773,-23.80869 7.91999,-23.13361l1.25039,-17.97934c-0.02421,-0.4116 0.52269,-0.61384 0.87874,-0.34324l10.42816,10.00367c0,0 4.73695,-0.83746 9.39272,-0.16382c2.78862,0.32186 5.1101,0.96275 7.29628,1.78167z" fill="#ffab19" stroke="#001026" stroke-width="1.2" stroke-linecap="butt" stroke-linejoin="miter"/><path d="M265.47772,163.94976c0,0 6.44745,3.04638 6.57138,8.87001c0.12393,5.82363 -6.50007,15.05686 -25.44502,15.15093c-24.70734,0.43306 -33.34243,-15.84715 -24.79574,-25.02342c8.56521,-9.27454 18.18158,1.79729 26.54744,2.76288c7.16809,0.84168 9.12067,-5.20128 17.12194,-1.7604z" fill="#ffffff" stroke="none" stroke-width="1" stroke-linecap="butt" stroke-linejoin="miter"/><path d="M232.54127,168.63272c0.07406,-0.39308 0.52269,-0.61384 0.89726,-0.44151c1.73755,1.03967 6.74796,3.61179 12.57017,5.11574c5.2511,1.29459 8.45132,1.59224 9.98093,1.57515c0.50987,-0.0057 0.81038,0.55971 0.52127,1.01404c-1.38433,2.48669 -6.50722,9.15348 -16.7146,6.61983c-8.75753,-2.66753 -8.45704,-9.12351 -7.25502,-13.88325z" fill="#ffffff" stroke="#001026" stroke-width="1.2" stroke-linecap="round" stroke-linejoin="round"/><path d="M283.35595,168.4374c-5.32229,2.86412 -12.41633,1.62935 -12.41633,1.62935" fill="none" stroke="#001026" stroke-width="1.2" stroke-linecap="round" stroke-linejoin="round"/><path d="M280.00481,179.20308c-6.28365,-0.67505 -9.76445,-3.26427 -9.76445,-3.26427" fill="none" stroke="#001026" stroke-width="1.2" stroke-linecap="round" stroke-linejoin="round"/><path d="M248.44407,163.08105c2.06369,0.3888 4.18863,0.99266 4.1573,1.69908c-0.16093,1.39431 -2.1534,3.86819 -3.74426,3.67022c-1.80591,-0.13672 -5.47044,-3.3711 -5.1742,-4.94344c0.1239,-1.19777 2.79574,-0.79615 4.76116,-0.42586z" fill="#001026" stroke="#001026" stroke-width="1.2" stroke-linecap="round" stroke-linejoin="round"/><path d="M204.49978,153.27548c0,0 7.93291,4.34383 10.79845,8.03825" fill="none" stroke="#001026" stroke-width="1.2" stroke-linecap="round" stroke-linejoin="round"/><path d="M214.94504,164.80876c-4.5404,0.87449 -11.60881,-1.57656 -11.60881,-1.57656" fill="none" stroke="#001026" stroke-width="1.2" stroke-linecap="round" stroke-linejoin="round"/><g><path d="M262.20625,153.76804c2.01671,4.95912 1.17075,9.98946 -1.91411,11.23994c-3.08485,1.25048 -7.21652,-1.66488 -9.3315,-6.64252c-2.01671,-4.95912 -1.17075,-9.98946 1.91411,-11.23994c3.10337,-1.34875 7.31479,1.6834 9.3315,6.64252z" fill="#ffffff" stroke="#001026" stroke-width="1.2" stroke-linecap="round" stroke-linejoin="round"/><path d="M260.75785,159.29543c-0.20366,1.08098 -1.15646,1.81731 -2.13917,1.63216c-0.98271,-0.18514 -1.60225,-1.2177 -1.39859,-2.29868c0.20366,-1.08098 1.15646,-1.81731 2.13917,-1.63216c0.98271,0.18514 1.60225,1.2177 1.39859,2.29868" fill="#001026" stroke="none" stroke-width="1" stroke-linecap="butt" stroke-linejoin="miter"/></g><g><path d="M237.31661,151.92804c2.1335,4.87936 0.93718,10.14898 -2.06792,11.51624c-3.59472,1.25617 -7.65945,-0.93426 -9.79295,-5.81362c-2.23177,-4.89788 -1.37299,-10.53636 2.08074,-12.12438c3.47224,-1.68629 7.64663,1.5424 9.78013,6.42176z" fill="#ffffff" stroke="#001026" stroke-width="1.2" stroke-linecap="round" stroke-linejoin="round"/><path d="M235.65314,157.51668c-0.20366,1.08098 -1.15646,1.81731 -2.13917,1.63216c-0.98271,-0.18514 -1.60225,-1.2177 -1.39859,-2.29868c0.20366,-1.08098 1.15646,-1.81731 2.13917,-1.63216c0.9642,0.28342 1.60225,1.2177 1.39859,2.29868" fill="#001026" stroke="none" stroke-width="1" stroke-linecap="butt" stroke-linejoin="miter"/></g></g></g></g></svg>