<svg version="1.1" xmlns="http://www.w3.org/2000/svg" xmlns:xlink="http://www.w3.org/1999/xlink" width="86.25685" height="103.79383" viewBox="0,0,86.25685,103.79383"><g transform="translate(-194.59219,-126.40103)"><g data-paper-data="{&quot;isPaintingLayer&quot;:true}" fill-rule="evenodd" stroke-miterlimit="10" stroke-dasharray="" stroke-dashoffset="0" style="mix-blend-mode: normal"><g><path d="M222.45,199.3c0.6,0.8 3.3,2 -0.2,4.2c-3.6,2.1 -12.7,5 -21.6,-2.9c-9.6,-8.6 -4.5,-20.3 -0.1,-20.7c4.3,-0.4 2.6,6.6 5.7,14.4c4.4,11.3 15.6,4.2 16.2,5z" fill="#ffab19" stroke="#001026" stroke-width="1.2" stroke-linecap="round" stroke-linejoin="round"/><path d="M203.35,185.1c0.5,4.4 1.5,7.4 1.5,7.4c0,0 -1.6,-2 -4,-1.6c-2.9,0.5 -3.8,2.9 -3.9,3.6c-0.7,-1.7 -1.3,-3.8 -1.1,-7.4c0.5,-3.5 2.7,-7.1 5.2,-6.7c2,0.4 1.9,2 2.3,4.7z" fill="#ffffff" stroke="none" stroke-width="1" stroke-linecap="butt" stroke-linejoin="miter"/></g><path d="M230.98582,206.09672c-0.22719,1.11731 -0.46369,5.1415 -3.43078,9.96192c-2.0232,3.34763 -11.19318,3.98907 -11.19318,3.98907c4.89424,7.84197 -1.91356,10.99537 -4.50079,8.92989c-2.05186,-1.66128 -6.44943,-10.97747 -4.83403,-12.67171c2.5127,-2.5858 7.52233,-2.83807 11.19534,-4.65988c1.07503,-0.53321 1.08435,-3.44008 2.34858,-7.19265c0.90302,-2.6804 1.58817,-7.15036 6.50607,-6.68739c4.24708,0.46083 4.41119,5.06768 3.9088,8.33075z" fill="#ffab19" stroke="#001026" stroke-width="1.2" stroke-linecap="round" stroke-linejoin="round"/><path d="M242.16578,185.97513c1.14582,1.90187 4.65241,9.53756 7.3709,9.78212c2.58709,0.19227 8.22493,-4.41368 10.53066,-0.07161c2.26618,4.25023 -3.66406,6.91337 -9.21695,7.67188c-7.18062,1.02408 -14.35235,-7.53725 -13.28949,-15.18122c0.4678,-2.70576 3.4195,-4.19488 4.60487,-2.20117z" fill="#ffab19" stroke="#001026" stroke-width="1.2" stroke-linecap="round" stroke-linejoin="round"/><g><path d="M250.77353,201.76111c2.28911,2.45153 2.30678,11.356 2.30678,11.356c0,0 7.26417,0.20457 6.33866,5.79237c-0.67911,4.12174 -3.88156,3.20834 -13.86146,1.18311c-1.52012,-0.33052 -2.38528,-1.67645 -2.22299,-3.08842c0.46878,-3.1544 0.77541,-8.2255 -1.93436,-8.74232c-3.43681,-0.16837 -7.2101,-0.12045 -9.54136,-0.04844c-9.49332,0.39618 -7.63639,-7.81124 -8.33901,-17.22647c-0.41438,-5.08314 1.24392,-4.72257 6.94,-6.95747c3.13045,-1.41787 4.97506,-2.24695 6.77162,-3.52066c2.72189,-1.86851 4.81264,2.49368 5.40738,5.08333c0,0 0.82301,3.86945 0.75681,6.17067c-0.04818,2.88404 -0.2646,5.87622 -0.78738,7.28217c0,0 5.84618,0.40279 8.16533,2.71613z" fill="#ffab19" stroke="#001026" stroke-width="1.2" stroke-linecap="round" stroke-linejoin="round"/><path d="M241.90663,199.38052c0,0 -1.91067,-0.19835 -4.06768,-0.59499c-2.6557,-0.43271 -5.14919,-0.61307 -5.14304,-4.30223c0.21642,-2.99218 -0.08386,-6.60326 5.26964,-6.59703c5.07711,-0.05388 4.83064,3.0765 4.83064,3.0765c0.58262,4.97499 -0.88958,8.41775 -0.88958,8.41775z" fill="#ffffff" stroke="none" stroke-width="1" stroke-linecap="butt" stroke-linejoin="miter"/></g><path d="M227.8145,191.38388c-2.2,1 -6.3,-0.8 -7.4,-0.6c-0.3,0.1 -2.1,5.3 -3.2,8.4c-1.5,4.4 -8.3,3.1 -8.7,-1.5c-0.3,-4.3 3.6,-12.6 4.9,-14.1c2.9,-3.5 12.7592,-0.6917 19.3463,1.0565" fill="#ffab19" stroke="#001026" stroke-width="1.2" stroke-linecap="round" stroke-linejoin="round"/><g><path d="M251.1816,130.25554c0.32293,-0.16037 0.80622,0.00218 0.85473,0.41163l1.22315,10.94321c0,0 5.75283,5.47311 7.21934,8.98728c2.47725,5.86116 2.00621,10.33756 2.00621,10.33756c0,0 6.77666,2.98277 7.24468,8.78889c0.46803,5.80611 -5.26506,15.96149 -24.38237,17.24935c-19.11731,1.28786 -33.44931,-5.68448 -39.04749,-17.89229c-5.59817,-12.2078 7.23492,-24.27892 6.53838,-23.5614l0.1852,-18.02181c-0.04851,-0.40945 0.48548,-0.64367 0.85691,-0.39459l11.00138,9.36961c0,0 4.67915,-1.11606 9.3666,-0.71887c2.80277,0.15642 5.15808,0.65894 7.38885,1.34717z" fill="#ffab19" stroke="#001026" stroke-width="1.2" stroke-linecap="butt" stroke-linejoin="miter"/><path d="M262.13676,161.29397c0,0 6.61628,2.65985 7.08431,8.46596c0.46803,5.80611 -5.59848,15.41483 -24.50473,16.62884c-24.63851,1.8931 -34.22105,-13.84808 -26.23185,-23.51362c8.00188,-9.76473 18.25603,0.71918 26.66435,1.18845c7.20532,0.41641 8.7972,-5.73143 16.98791,-2.76964z" fill="#ffffff" stroke="none" stroke-width="1" stroke-linecap="butt" stroke-linejoin="miter"/><path d="M229.5348,167.91608c0.05069,-0.39678 0.48548,-0.64367 0.86958,-0.49379c1.79598,0.93512 6.9497,3.20651 12.85064,4.36359c5.31845,0.98186 8.53067,1.08978 10.0566,0.98228c0.50864,-0.03583 0.84206,0.51082 0.58031,0.98145c-1.23489,2.56419 -5.95464,9.5222 -16.29397,7.59649c-8.89992,-2.14508 -8.98167,-8.60753 -8.06316,-13.43002z" fill="#ffffff" stroke="#001026" stroke-width="1.2" stroke-linecap="round" stroke-linejoin="round"/><path d="M280.24904,164.71673c-5.14364,3.17379 -12.29827,2.36061 -12.29827,2.36061" fill="none" stroke="#001026" stroke-width="1.2" stroke-linecap="round" stroke-linejoin="round"/><path d="M277.54027,175.66171c-6.31257,-0.30236 -9.94037,-2.68125 -9.94037,-2.68125" fill="none" stroke="#001026" stroke-width="1.2" stroke-linecap="round" stroke-linejoin="round"/><path d="M245.08154,161.43389c2.08307,0.26611 4.23999,0.74328 4.25048,1.45031c-0.07821,1.40139 -1.92093,3.98874 -3.52071,3.88518c-1.81083,-0.02971 -5.66018,-3.04177 -5.45743,-4.62887c0.05287,-1.203 2.74378,-0.96005 4.72765,-0.70661z" fill="#001026" stroke="#001026" stroke-width="1.2" stroke-linecap="round" stroke-linejoin="round"/><path d="M200.63438,154.24363c0,0 8.17586,3.86721 11.25482,7.38574" fill="none" stroke="#001026" stroke-width="1.2" stroke-linecap="round" stroke-linejoin="round"/><path d="M211.74327,165.13917c-4.48076,1.1414 -11.68171,-0.88745 -11.68171,-0.88745" fill="none" stroke="#001026" stroke-width="1.2" stroke-linecap="round" stroke-linejoin="round"/><g><path d="M258.26903,151.32348c2.30639,4.83121 1.75932,9.90277 -1.24621,11.33344c-3.00552,1.43068 -7.30233,-1.2353 -9.70791,-6.07918c-2.30639,-4.83121 -1.75932,-9.90277 1.24621,-11.33344c3.01819,-1.52987 7.40152,1.24797 9.70791,6.07918z" fill="#ffffff" stroke="#001026" stroke-width="1.2" stroke-linecap="round" stroke-linejoin="round"/><path d="M257.14996,156.92685c-0.13939,1.09113 -1.04699,1.8825 -2.03893,1.75578c-0.99194,-0.12672 -1.67144,-1.12084 -1.53205,-2.21197c0.13939,-1.09113 1.04699,-1.8825 2.03893,-1.75578c0.99194,0.12672 1.67144,1.12084 1.53205,2.21197" fill="#001026" stroke="none" stroke-width="1" stroke-linecap="butt" stroke-linejoin="miter"/></g><g><path d="M233.31414,150.95829c2.41825,4.74469 1.53558,10.07581 -1.38342,11.61835c-3.51416,1.46651 -7.70129,-0.47977 -10.11954,-5.22445c-2.51745,-4.75736 -1.99354,-10.43675 1.36025,-12.22619c3.36646,-1.88863 7.72445,1.0876 10.1427,5.83229z" fill="#ffffff" stroke="#001026" stroke-width="1.2" stroke-linecap="round" stroke-linejoin="round"/><path d="M231.98401,156.6355c-0.13939,1.09113 -1.04699,1.8825 -2.03893,1.75578c-0.99194,-0.12672 -1.67144,-1.12084 -1.53205,-2.21197c0.13939,-1.09113 1.04699,-1.8825 2.03893,-1.75578c0.97927,0.22591 1.67144,1.12084 1.53205,2.21197" fill="#001026" stroke="none" stroke-width="1" stroke-linecap="butt" stroke-linejoin="miter"/></g></g></g></g></svg>