<svg version="1.1" xmlns="http://www.w3.org/2000/svg" xmlns:xlink="http://www.w3.org/1999/xlink" width="88.39524" height="103.43582" viewBox="0,0,88.39524,103.43582"><g transform="translate(-194.5922,-127.65175)"><g data-paper-data="{&quot;isPaintingLayer&quot;:true}" fill-rule="evenodd" stroke-miterlimit="10" stroke-dasharray="" stroke-dashoffset="0" style="mix-blend-mode: normal"><g><path d="M222.45,199.3c0.6,0.8 3.3,2 -0.2,4.2c-3.6,2.1 -12.7,5 -21.6,-2.9c-9.6,-8.6 -4.5,-20.3 -0.1,-20.7c4.3,-0.4 2.6,6.6 5.7,14.4c4.4,11.3 15.6,4.2 16.2,5z" fill="#ffab19" stroke="#001026" stroke-width="1.2" stroke-linecap="round" stroke-linejoin="round"/><path d="M203.35,185.1c0.5,4.4 1.5,7.4 1.5,7.4c0,0 -1.6,-2 -4,-1.6c-2.9,0.5 -3.8,2.9 -3.9,3.6c-0.7,-1.7 -1.3,-3.8 -1.1,-7.4c0.5,-3.5 2.7,-7.1 5.2,-6.7c2,0.4 1.9,2 2.3,4.7z" fill="#ffffff" stroke="none" stroke-width="1" stroke-linecap="butt" stroke-linejoin="miter"/></g><path d="M232.41529,211.11157c-0.47705,1.03557 -1.62895,4.89863 -5.62119,8.91135c-2.73614,2.79526 -11.80928,1.31942 -11.80928,1.31942c2.96807,8.75446 -4.38101,10.26483 -6.42639,7.66169c-1.61682,-2.08707 -3.76379,-12.16281 -1.80329,-13.44203c3.03814,-1.94158 7.97239,-1.03977 11.96502,-1.9719c1.16858,-0.27282 1.84343,-3.10028 3.93351,-6.46356c1.49292,-2.40233 3.18362,-6.59655 7.86477,-5.01952c4.02864,1.4213 3.13327,5.94328 1.89689,9.00455z" fill="#ffab19" stroke="#001026" stroke-width="1.2" stroke-linecap="round" stroke-linejoin="round"/><path d="M241.3076,190.0721c1.04224,1.96054 4.13459,9.77318 6.83607,10.16308c2.57307,0.33064 8.44964,-3.96655 10.51937,0.49285c2.03515,4.36557 -4.02929,6.70707 -9.61485,7.16691c-7.22518,0.63778 -13.92779,-8.29558 -12.45681,-15.87161c0.61213,-2.67681 3.6394,-4.0056 4.71622,-1.95122z" fill="#ffab19" stroke="#001026" stroke-width="1.2" stroke-linecap="round" stroke-linejoin="round"/><g><path d="M249.91835,209.63363c1.0728,3.17791 -2.58733,11.29538 -2.58733,11.29538c0,0 6.53174,3.18535 3.38185,7.89261c-2.3202,3.4737 -4.85989,1.31964 -13.11344,-4.64515c-1.24807,-0.92862 -1.48038,-2.51167 -0.74964,-3.73069c1.72926,-2.67949 4.10215,-7.17164 1.84747,-8.76109c-3.06073,-1.57224 -6.51722,-3.08641 -8.67026,-3.98329c-8.81006,-3.55849 -3.73033,-10.26716 -0.48318,-19.13261c1.72117,-4.80079 3.08268,-3.78775 9.19334,-3.47166c3.43658,0.00102 5.45893,0.00744 7.62109,-0.41094c3.25051,-0.5781 3.35382,4.25815 2.82637,6.86233c0,0 -0.84791,3.86407 -1.85827,5.93269c-1.23456,2.60689 -2.66701,5.24281 -3.7236,6.30752c0,0 5.1584,2.78047 6.31561,5.84492z" fill="#ffab19" stroke="#001026" stroke-width="1.2" stroke-linecap="round" stroke-linejoin="round"/><path d="M242.82522,203.80468c0,0 -1.65835,-0.96948 -3.45919,-2.22126c-2.24016,-1.49052 -4.43677,-2.68424 -2.90809,-6.04178c1.43244,-2.63592 2.64979,-6.04886 7.52317,-3.83298c4.64647,2.04702 3.1296,4.79641 3.1296,4.79641c-1.52328,4.77175 -4.28551,7.29961 -4.28551,7.29961z" fill="#ffffff" stroke="none" stroke-width="1" stroke-linecap="butt" stroke-linejoin="miter"/></g><path d="M232.654,193.21172c-1.59271,1.8175 -6.07016,1.86632 -6.9901,2.5017c-0.23217,0.21471 0.2698,5.69449 0.54452,8.97237c0.44577,4.62723 -6.28597,6.24392 -8.54542,2.21715c-2.04475,-3.7946 -1.91022,-12.96422 -1.34358,-14.86657c1.20068,-4.38388 11.34132,-5.88643 18.0637,-7.00701" fill="#ffab19" stroke="#001026" stroke-width="1.2" stroke-linecap="round" stroke-linejoin="round"/><g><path d="M246.53783,128.11846c0.28046,-0.22659 0.78751,-0.17273 0.92366,0.21645l3.56743,10.41746c0,0 6.80292,4.09515 8.99669,7.2076c3.68947,5.18438 4.2005,9.65639 4.2005,9.65639c0,0 7.26227,1.44204 8.9784,7.00844c1.71614,5.56641 -1.67797,16.72347 -20.06092,22.1269c-18.38295,5.40343 -33.88601,1.70541 -41.9986,-8.99767c-8.11259,-10.70308 1.79702,-25.27015 1.27268,-24.41865l-3.72784,-17.63301c-0.13615,-0.38918 0.33432,-0.73364 0.75093,-0.57105l12.77163,6.76058c0,0 4.32572,-2.10432 8.98774,-2.73322c2.76999,-0.45517 5.17822,-0.47545 7.50516,-0.28742z" fill="#ffab19" stroke="#001026" stroke-width="1.2" stroke-linecap="butt" stroke-linejoin="miter"/><path d="M263.96394,156.04211c0,0 7.03568,1.16158 8.75181,6.72798c1.71614,5.56641 -2.12201,16.26214 -20.31494,21.5477c-23.64147,7.19171 -36.40993,-6.0965 -30.70717,-17.26469c5.69361,-11.26778 17.97747,-3.25736 26.28743,-4.62288c7.12413,-1.15622 7.34475,-7.50297 15.98287,-6.38811z" fill="#ffffff" stroke="none" stroke-width="1" stroke-linecap="butt" stroke-linejoin="miter"/><path d="M233.57421,169.57741c-0.03657,-0.39832 0.33432,-0.73364 0.74179,-0.67063c1.95604,0.52335 7.47972,1.62291 13.49116,1.47264c5.40481,-0.19499 8.56398,-0.78632 10.03026,-1.22221c0.48876,-0.1453 0.9328,0.31604 0.77936,0.83223c-0.64936,2.77098 -3.74771,10.58701 -14.25858,10.94956c-9.15332,-0.16378 -10.63471,-6.45468 -10.78399,-11.36159z" fill="#ffffff" stroke="#001026" stroke-width="1.2" stroke-linecap="round" stroke-linejoin="round"/><path d="M282.38744,155.45515c-4.33287,4.21381 -11.49357,4.97171 -11.49357,4.97171" fill="none" stroke="#001026" stroke-width="1.2" stroke-linecap="round" stroke-linejoin="round"/><path d="M282.11693,166.7271c-6.2279,1.07393 -10.28528,-0.46153 -10.28528,-0.46153" fill="none" stroke="#001026" stroke-width="1.2" stroke-linecap="round" stroke-linejoin="round"/><path d="M247.34502,159.87768c2.0912,-0.19201 4.30028,-0.194 4.46386,0.49393c0.22759,1.38499 -1.01012,4.31041 -2.59428,4.55629c-1.77417,0.36374 -6.18516,-1.74177 -6.33145,-3.33507c-0.2093,-1.18583 2.47025,-1.53228 4.46187,-1.71514z" fill="#001026" stroke="#001026" stroke-width="1.2" stroke-linecap="round" stroke-linejoin="round"/><path d="M202.39637,162.49841c0,0 8.81999,2.00196 12.58877,4.76896" fill="none" stroke="#001026" stroke-width="1.2" stroke-linecap="round" stroke-linejoin="round"/><path d="M215.60389,170.72528c-4.12655,2.08604 -11.59613,1.66724 -11.59613,1.66724" fill="none" stroke="#001026" stroke-width="1.2" stroke-linecap="round" stroke-linejoin="round"/><g><path d="M258.02584,147.14779c3.2993,4.216 3.86518,9.28549 1.24149,11.33396c-2.62369,2.04847 -7.39643,0.37785 -10.79531,-3.829c-3.2993,-4.216 -3.86518,-9.28549 -1.24149,-11.33396c2.61455,-2.14805 7.49601,-0.387 10.79531,3.829z" fill="#ffffff" stroke="#001026" stroke-width="1.2" stroke-linecap="round" stroke-linejoin="round"/><path d="M258.14868,152.86049c0.10058,1.09539 -0.61378,2.06477 -1.6096,2.1562c-0.99581,0.09143 -1.87475,-0.73165 -1.97532,-1.82704c-0.10058,-1.09539 0.61378,-2.06477 1.6096,-2.1562c0.99581,-0.09143 1.87475,0.73165 1.97532,1.82704" fill="#001026" stroke="none" stroke-width="1" stroke-linecap="butt" stroke-linejoin="miter"/></g><g><path d="M233.58573,152.20358c3.38974,4.10727 3.68431,9.50294 1.16934,11.64185c-3.11246,2.19377 -7.62203,1.20193 -11.01177,-2.90534c-3.48932,-4.09813 -4.20964,-9.75597 -1.32378,-12.23019c2.87672,-2.57381 7.77647,-0.61359 11.16621,3.49368z" fill="#ffffff" stroke="#001026" stroke-width="1.2" stroke-linecap="round" stroke-linejoin="round"/><path d="M233.51855,158.03415c0.10058,1.09539 -0.61378,2.06477 -1.6096,2.1562c-0.99581,0.09143 -1.87475,-0.73165 -1.97532,-1.82704c-0.10058,-1.09539 0.61378,-2.06477 1.6096,-2.1562c1.00495,0.00815 1.87475,0.73165 1.97532,1.82704" fill="#001026" stroke="none" stroke-width="1" stroke-linecap="butt" stroke-linejoin="miter"/></g></g></g></g></svg>