<svg version="1.1" xmlns="http://www.w3.org/2000/svg" xmlns:xlink="http://www.w3.org/1999/xlink" width="81.02591" height="104.08879" viewBox="0,0,81.02591,104.08879"><g transform="translate(-190.66972,-130.25263)"><g data-paper-data="{&quot;isPaintingLayer&quot;:true}" fill-rule="evenodd" stroke-miterlimit="10" stroke-dasharray="" stroke-dashoffset="0" style="mix-blend-mode: normal"><g><path d="M222.45,199.3c0.6,0.8 3.3,2 -0.2,4.2c-3.6,2.1 -12.7,5 -21.6,-2.9c-9.6,-8.6 -4.5,-20.3 -0.1,-20.7c4.3,-0.4 2.6,6.6 5.7,14.4c4.4,11.3 15.6,4.2 16.2,5z" fill="#ffab19" stroke="#001026" stroke-width="1.2" stroke-linecap="round" stroke-linejoin="round"/><path d="M203.35,185.1c0.5,4.4 1.5,7.4 1.5,7.4c0,0 -1.6,-2 -4,-1.6c-2.9,0.5 -3.8,2.9 -3.9,3.6c-0.7,-1.7 -1.3,-3.8 -1.1,-7.4c0.5,-3.5 2.7,-7.1 5.2,-6.7c2,0.4 1.9,2 2.3,4.7z" fill="#ffffff" stroke="none" stroke-width="1" stroke-linecap="butt" stroke-linejoin="miter"/></g><path d="M234.25093,204.67737c0.29478,1.10141 1.87722,4.80896 1.37047,10.44662c-0.31849,3.89853 -8.24069,8.56102 -8.24069,8.56102c7.87715,4.83741 3.1893,10.69524 -0.04743,9.99989c-2.57731,-0.57224 -10.66715,-6.95068 -9.97654,-9.18742c1.0963,-3.43484 5.46802,-5.89414 7.94355,-9.16243c0.72455,-0.95657 -0.5631,-3.56271 -1.10451,-7.48533c-0.38672,-2.80186 -1.76631,-7.10845 2.84218,-8.88663c4.00707,-1.48102 6.20788,2.56947 7.21299,5.71427z" fill="#ffab19" stroke="#001026" stroke-width="1.2" stroke-linecap="round" stroke-linejoin="round"/><path d="M242.93312,186.33119c0.95129,2.00625 3.6823,9.95242 6.36307,10.46572c2.55521,0.44823 8.62257,-3.5751 10.48572,0.97448c1.83291,4.45426 -4.33247,6.51535 -9.93324,6.71869c-7.24682,0.30595 -13.53293,-8.92523 -11.71625,-16.42588c0.73418,-2.64594 3.81916,-3.83458 4.8007,-1.73301z" fill="#ffab19" stroke="#001026" stroke-width="1.2" stroke-linecap="round" stroke-linejoin="round"/><g><path d="M249.82516,202.07724c2.28911,2.45153 2.30678,11.356 2.30678,11.356c0,0 7.26417,0.20457 6.33866,5.79237c-0.67911,4.12174 -3.88156,3.20834 -13.86146,1.18311c-1.52012,-0.33052 -2.38528,-1.67645 -2.22299,-3.08842c0.46878,-3.1544 0.77541,-8.2255 -1.93436,-8.74232c-3.43681,-0.16837 -7.2101,-0.12045 -9.54136,-0.04844c-9.49332,0.39618 -7.63639,-7.81124 -8.33901,-17.22647c-0.41438,-5.08314 1.24392,-4.72257 6.94,-6.95747c3.13045,-1.41787 4.97506,-2.24695 6.77162,-3.52066c2.72189,-1.86851 4.81264,2.49368 5.40738,5.08333c0,0 0.82301,3.86945 0.75681,6.17067c-0.04818,2.88404 -0.2646,5.87622 -0.78738,7.28217c0,0 5.84618,0.40279 8.16533,2.71613z" fill="#ffab19" stroke="#001026" stroke-width="1.2" stroke-linecap="round" stroke-linejoin="round"/><path d="M240.95826,199.69665c0,0 -1.91067,-0.19835 -4.06768,-0.59499c-2.6557,-0.43271 -5.14919,-0.61307 -5.14304,-4.30223c0.21642,-2.99218 -0.08386,-6.60326 5.26964,-6.59703c5.07711,-0.05388 4.83064,3.0765 4.83064,3.0765c0.58262,4.97499 -0.88958,8.41775 -0.88958,8.41775z" fill="#ffffff" stroke="none" stroke-width="1" stroke-linecap="butt" stroke-linejoin="miter"/></g><path d="M226.25665,194.05844c-2.38545,0.38682 -5.86845,-2.42719 -6.98235,-2.52324c-0.31573,0.01766 -3.41877,4.56202 -5.29463,7.26408c-2.60338,3.85129 -8.82289,0.81029 -8.00021,-3.73319c0.84035,-4.22774 6.78411,-11.21142 8.43255,-12.31714c3.71772,-2.61507 12.49265,2.68503 18.38898,6.10254" fill="#ffab19" stroke="#001026" stroke-width="1.2" stroke-linecap="round" stroke-linejoin="round"/><g><path d="M234.00078,130.70389c0.27117,-0.23763 0.77997,-0.20409 0.93158,0.17934l3.98124,10.26644c0,0 6.96127,3.81978 9.27777,6.842c3.89388,5.03266 4.58336,9.48065 4.58336,9.48065c0,0 7.31413,1.15042 9.25153,6.64373c1.9374,5.49331 -1.00774,16.7772 -19.15987,22.91156c-18.15213,6.13436 -33.79068,3.05937 -42.32486,-7.31067c-8.53418,-10.37004 0.78486,-25.32181 0.295,-24.45001l-4.43012,-17.4698c-0.15161,-0.38342 0.30471,-0.74643 0.72749,-0.60063l13.03181,6.24435c0,0 4.23809,-2.27565 8.87123,-3.09051c2.74956,-0.5656 5.15506,-0.68218 7.48766,-0.58737z" fill="#ffab19" stroke="#001026" stroke-width="1.2" stroke-linecap="butt" stroke-linejoin="miter"/><path d="M252.52979,157.90821c0,0 7.07651,0.87925 9.01391,6.37256c1.9374,5.49331 -1.46988,16.334 -19.43685,22.34298c-23.33491,8.13154 -36.62463,-4.63535 -31.37313,-16.0227c5.23838,-11.48649 17.83281,-3.97379 26.0815,-5.67059c7.07218,-1.44023 7.03878,-7.79074 15.71458,-7.02225z" fill="#ffffff" stroke="none" stroke-width="1" stroke-linecap="butt" stroke-linejoin="miter"/><path d="M222.70575,172.64816c-0.05248,-0.39654 0.30471,-0.74643 0.71437,-0.69976c1.97541,0.44469 7.53864,1.32245 13.53926,0.93186c5.39269,-0.41101 8.52567,-1.12822 9.97335,-1.62241c0.48256,-0.16473 0.9447,0.27847 0.81202,0.80039c-0.53801,2.79473 -3.32126,10.72843 -13.80923,11.51109c-9.15254,0.20245 -10.88437,-6.02417 -11.22978,-10.92117z" fill="#ffffff" stroke="#001026" stroke-width="1.2" stroke-linecap="round" stroke-linejoin="round"/><path d="M270.91508,156.58485c-4.16087,4.38374 -11.28552,5.42743 -11.28552,5.42743" fill="none" stroke="#001026" stroke-width="1.2" stroke-linecap="round" stroke-linejoin="round"/><path d="M271.09562,167.8586c-6.17996,1.32216 -10.29551,-0.04978 -10.29551,-0.04978" fill="none" stroke="#001026" stroke-width="1.2" stroke-linecap="round" stroke-linejoin="round"/><path d="M236.07759,162.40541c2.08185,-0.27549 4.28907,-0.36584 4.48004,0.31499c0.2828,1.37478 -0.83691,4.34736 -2.40996,4.6564c-1.75821,0.43441 -6.24988,-1.49299 -6.45978,-3.07917c-0.25656,-1.17651 2.40699,-1.62985 4.3897,-1.89223z" fill="#001026" stroke="#001026" stroke-width="1.2" stroke-linecap="round" stroke-linejoin="round"/><path d="M191.26972,166.82184c0,0 8.893,1.64758 12.76944,4.26163" fill="none" stroke="#001026" stroke-width="1.2" stroke-linecap="round" stroke-linejoin="round"/><path d="M204.79572,174.51387c-4.03982,2.24942 -11.52017,2.12971 -11.52017,2.12971" fill="none" stroke="#001026" stroke-width="1.2" stroke-linecap="round" stroke-linejoin="round"/><g><path d="M246.2407,149.25851c3.46528,4.08066 4.23348,9.12347 1.69382,11.27524c-2.53966,2.15177 -7.3754,0.67338 -10.93982,-3.39416c-3.46528,-4.08066 -4.23348,-9.12347 -1.69382,-11.27524c2.52654,-2.25091 7.47454,-0.6865 10.93982,3.39416z" fill="#ffffff" stroke="#001026" stroke-width="1.2" stroke-linecap="round" stroke-linejoin="round"/><path d="M246.59193,154.96173c0.14431,1.09049 -0.53071,2.08767 -1.52207,2.21885c-0.99136,0.13119 -1.90251,-0.65608 -2.04682,-1.74658c-0.14431,-1.09049 0.53071,-2.08767 1.52207,-2.21885c0.99136,-0.13119 1.90251,0.65608 2.04682,1.74658" fill="#001026" stroke="none" stroke-width="1" stroke-linecap="butt" stroke-linejoin="miter"/></g><g><path d="M222.02236,155.28778c3.5513,3.96841 4.06144,9.34798 1.63404,11.58576c-3.02222,2.3165 -7.56786,1.50583 -11.11916,-2.46258c-3.65044,-3.95529 -4.59648,-9.57979 -1.81188,-12.16746c2.77148,-2.68681 7.74571,-0.92413 11.29701,3.04428z" fill="#ffffff" stroke="#001026" stroke-width="1.2" stroke-linecap="round" stroke-linejoin="round"/><path d="M222.18844,161.11636c0.14431,1.09049 -0.53071,2.08767 -1.52207,2.21885c-0.99136,0.13119 -1.90251,-0.65608 -2.04682,-1.74658c-0.14431,-1.09049 0.53071,-2.08767 1.52207,-2.21885c1.00448,-0.03205 1.90251,0.65608 2.04682,1.74658" fill="#001026" stroke="none" stroke-width="1" stroke-linecap="butt" stroke-linejoin="miter"/></g></g></g></g></svg>